<svg width="280" height="110" viewBox="0 0 280 110" fill="none" xmlns="http://www.w3.org/2000/svg">
<path d="M49.3369 110C52.428 108.814 55.6922 107.807 59 106.872C55.4466 105.91 51.9269 104.908 48.5782 103.741C47.5494 103.382 45.6175 102.557 44.201 102.017C42.7844 101.484 41.3534 100.857 40.2092 100.297C39.0648 99.7401 38.2048 99.2618 37.9011 99.0803C36.1206 98.0041 35.4149 97.3894 35.7088 96.1747C36.4003 93.7781 36.4507 91.3076 36.0389 89.0836C35.6173 86.8479 34.7332 84.8532 33.254 83.203C32.329 82.1579 31.6785 81.8661 31.0908 82.1101C30.5075 82.3563 30.0018 83.1383 29.4885 84.2263C28.9705 85.312 28.4552 86.7015 27.7998 88.1221C27.5204 88.7199 27.2119 89.3226 26.8626 89.9062C26.701 89.7459 26.5375 89.583 26.3758 89.4157C25.3663 88.3875 24.3789 87.2754 23.6124 86.3427C22.844 85.4076 22.2874 84.6567 22.0971 84.3791C20.9815 82.7506 20.6106 81.9423 21.3429 81.0024C22.8874 79.1922 23.8943 77.066 24.3977 74.9615C24.8963 72.8478 24.8938 70.7572 24.2384 68.7388C23.8314 67.4666 23.3784 66.9572 22.769 66.9478C22.1668 66.9383 21.4295 67.4332 20.5647 68.1864C19.6999 68.9375 18.7168 69.956 17.599 70.9439C17.1197 71.3624 16.6186 71.7762 16.0814 72.1541C16.0573 72.0919 16.033 72.0297 16.0091 71.9652C15.5128 70.6905 15.0696 69.3513 14.7491 68.2486C14.4241 67.1462 14.2192 66.2828 14.1567 65.9696C13.9666 65.0489 13.8726 64.3792 13.9448 63.8673C14.0145 63.3554 14.2533 63.0089 14.7494 62.7288C16.7708 61.703 18.4379 60.1963 19.652 58.5103C20.8614 56.8171 21.6178 54.9302 21.7648 52.8854C21.8636 51.5963 21.6394 50.9816 21.1097 50.7592C20.582 50.5369 19.7533 50.7187 18.7246 51.0869C17.6933 51.4506 16.4623 52.01 15.1253 52.4886C14.547 52.6942 13.9496 52.8829 13.3353 53.0291C13.3547 51.8022 13.4221 50.5586 13.5137 49.5351C13.61 48.4446 13.7256 47.6076 13.776 47.3086C14.082 45.5486 14.3471 44.7903 15.4142 44.6252C17.5583 44.3932 19.553 43.6064 21.2057 42.504C22.856 41.3919 24.1667 39.9618 24.9931 38.173C25.5158 37.0464 25.5278 36.42 25.1303 36.0443C24.7353 35.6739 23.9355 35.5661 22.8946 35.5564C21.8513 35.5469 20.5697 35.6425 19.2184 35.6256C18.621 35.6186 18.0113 35.5897 17.4041 35.5111C17.7823 34.5495 18.1896 33.605 18.5533 32.823C18.9942 31.8784 19.3676 31.1634 19.5123 30.9099C20.353 29.4271 20.8325 28.8293 21.8418 29.018C23.8389 29.4821 25.8819 29.3959 27.7226 28.9032C29.5657 28.4033 31.2062 27.4996 32.5216 26.1171C33.3505 25.2514 33.56 24.6848 33.3192 24.2254C33.0757 23.7686 32.3892 23.4362 31.4497 23.1155C30.5125 22.7951 29.3272 22.4961 28.1128 22.0753C27.619 21.9031 27.1229 21.7069 26.6386 21.4801C27.0961 20.9468 27.5445 20.4419 27.954 20.0042C28.6648 19.2369 29.2407 18.6697 29.4548 18.4735C30.7146 17.3186 31.3579 16.8953 32.2591 17.3806C34.0177 18.4307 35.9885 18.9662 37.8916 19.0596C39.8019 19.1455 41.6425 18.7845 43.3169 17.8733C44.3723 17.2992 44.7455 16.8259 44.6564 16.3165C44.5674 15.8094 44.0154 15.2783 43.2228 14.6903C42.4303 14.0972 41.3945 13.4516 40.3682 12.6791C40.315 12.6383 40.2621 12.5977 40.2092 12.5571C41.3872 12.4829 42.505 12.098 43.6301 11.5839C44.8902 11.0028 46.4562 9.91932 47.6896 8.69963C48.911 7.47273 49.8119 6.081 49.4387 4.74879C49.0653 3.42379 47.4774 2.70652 45.5478 2.56784C43.6229 2.41971 41.3945 2.87158 39.9055 3.56047C38.6334 4.14405 37.5013 4.88771 36.6727 5.84922C36.6511 4.6009 36.8171 3.38595 36.9159 2.39108C37.0195 1.34841 37.0413 0.544494 36.634 0.193203C36.2317 -0.158586 35.3886 -0.0652242 33.8516 0.767319C31.4111 2.09456 29.6093 4.0843 28.6528 6.20325C27.6867 8.32195 27.5565 10.5607 28.2069 12.5168C28.4863 13.5261 27.8913 14.0761 26.518 15.3221C26.2845 15.5347 25.6241 16.1089 24.7909 16.8836C24.3114 17.3285 23.7767 17.8452 23.2297 18.3904C22.9551 17.9024 22.7261 17.3908 22.5385 16.867C22.0951 15.6331 21.8663 14.3584 21.6421 13.3346C21.4182 12.3109 21.1892 11.5411 20.6929 11.3282C20.2038 11.1201 19.4306 11.4622 18.226 12.7199C16.3156 14.7266 15.2169 17.166 14.9593 19.4734C14.6944 21.7863 15.2605 23.9553 16.4819 25.6196C17.0602 26.495 16.665 27.2003 15.7423 28.8051C15.588 29.0803 15.1326 29.8264 14.5811 30.8165C14.1256 31.6322 13.61 32.6101 13.1161 33.6169C12.6682 33.2176 12.2587 32.7752 11.8877 32.3089C11.0227 31.2256 10.3651 30.0273 9.79654 29.0755C9.22822 28.1285 8.74142 27.4304 8.17536 27.3873C7.61406 27.3417 6.95395 27.947 6.17823 29.621C4.94478 32.2877 4.6847 35.1167 5.22919 37.5152C5.76616 39.9235 7.09365 41.8896 8.8934 43.1185C9.77748 43.7879 9.63301 44.6274 9.28866 46.5455C9.23299 46.8731 9.05241 47.7724 8.85728 48.9512C8.67646 50.0562 8.49337 51.4075 8.36571 52.7467C7.77307 52.5169 7.2045 52.2276 6.66503 51.9022C5.41228 51.1489 4.31853 50.2043 3.40562 49.4703C2.49496 48.7384 1.7576 48.2243 1.18201 48.3868C0.611189 48.5494 0.184576 49.3961 0.0378567 51.3426C-0.188617 54.4419 0.615954 57.3332 2.05179 59.5022C3.48512 61.6856 5.53291 63.1348 7.76881 63.6754C8.32509 63.8429 8.65514 64.1442 8.88914 64.6583C9.12038 65.1701 9.25756 65.8971 9.45996 66.9039C9.52743 67.2483 9.69346 68.2026 9.9588 69.4342C10.2214 70.6681 10.5898 72.1748 11.0187 73.6218C11.0405 73.6935 11.0621 73.7652 11.0839 73.8372C10.4215 73.8416 9.75892 73.7819 9.10834 73.6746C7.58346 73.4256 6.14035 72.921 4.95983 72.5527C3.77956 72.1848 2.85436 71.9669 2.35551 72.3496C1.86394 72.73 1.77716 73.7343 2.41345 75.7146C2.92408 77.2858 3.66871 78.7156 4.57435 79.9381C5.47774 81.1625 6.54264 82.1837 7.68479 82.9655C9.97586 84.532 12.5631 85.1228 14.9553 84.7449C16.1842 84.6132 16.7139 85.3999 17.9308 87.1984C18.1404 87.5047 18.6967 88.3656 19.4654 89.4536C20.2339 90.5396 21.2215 91.8474 22.2431 93.0743C22.4071 93.273 22.5709 93.4691 22.7369 93.6628C22.1084 93.9424 21.4505 94.1603 20.7856 94.3273C19.2101 94.7267 17.6007 94.8442 16.3023 94.9801C15.0064 95.1215 14.0185 95.2936 13.7028 95.8747C13.3898 96.4488 13.7391 97.4578 15.2086 99.1105C16.3771 100.419 17.7166 101.488 19.1211 102.289C20.5233 103.092 21.9953 103.626 23.4359 103.896C24.879 104.164 26.2955 104.169 27.611 103.929C28.9264 103.688 30.143 103.205 31.2127 102.511C31.7717 102.189 32.2678 102.153 32.8652 102.353C33.4652 102.552 34.1664 102.99 35.1468 103.587C35.4839 103.788 36.3973 104.374 37.6162 105.082C38.8351 105.787 40.365 106.61 41.8948 107.333C43.3721 108.036 48.118 109.579 49.3369 110Z" fill="white" fill-opacity="0.3"/>
<path d="M231.499 110C228.461 108.814 225.252 107.807 222 106.872C225.493 105.91 228.953 104.908 232.245 103.741C233.257 103.382 235.156 102.557 236.548 102.017C237.941 101.484 239.348 100.857 240.472 100.297C241.597 99.7401 242.443 99.2618 242.741 99.0803C244.492 98.0041 245.185 97.3894 244.896 96.1747C244.217 93.7781 244.167 91.3076 244.572 89.0836C244.986 86.8479 245.855 84.8532 247.31 83.203C248.219 82.1579 248.858 81.8661 249.436 82.1101C250.01 82.3563 250.507 83.1383 251.011 84.2263C251.52 85.312 252.027 86.7015 252.671 88.1221C252.946 88.7199 253.249 89.3226 253.593 89.9062C253.752 89.7459 253.912 89.583 254.071 89.4157C255.064 88.3875 256.034 87.2754 256.788 86.3427C257.543 85.4076 258.09 84.6567 258.277 84.3791C259.374 82.7506 259.739 81.9423 259.019 81.0024C257.501 79.1922 256.511 77.066 256.016 74.9615C255.526 72.8478 255.528 70.7572 256.172 68.7388C256.573 67.4666 257.018 66.9572 257.617 66.9478C258.209 66.9383 258.934 67.4332 259.784 68.1864C260.634 68.9375 261.6 69.956 262.699 70.9439C263.17 71.3624 263.663 71.7762 264.191 72.1541C264.215 72.0919 264.239 72.0297 264.262 71.9652C264.75 70.6905 265.186 69.3513 265.501 68.2486C265.82 67.1462 266.022 66.2828 266.083 65.9696C266.27 65.0489 266.363 64.3792 266.292 63.8673C266.223 63.3554 265.988 63.0089 265.501 62.7288C263.513 61.703 261.875 60.1963 260.681 58.5103C259.492 56.8171 258.749 54.9302 258.604 52.8854C258.507 51.5963 258.727 50.9816 259.248 50.7592C259.767 50.5369 260.581 50.7187 261.593 51.0869C262.607 51.4506 263.817 52.01 265.131 52.4886C265.7 52.6942 266.287 52.8829 266.891 53.0291C266.872 51.8022 266.805 50.5586 266.715 49.5351C266.621 48.4446 266.507 47.6076 266.457 47.3086C266.157 45.5486 265.896 44.7903 264.847 44.6252C262.739 44.3932 260.778 43.6064 259.154 42.504C257.531 41.3919 256.243 39.9618 255.431 38.173C254.917 37.0464 254.905 36.42 255.296 36.0443C255.684 35.6739 256.47 35.5661 257.493 35.5564C258.519 35.5469 259.779 35.6425 261.107 35.6256C261.695 35.6186 262.294 35.5897 262.891 35.5111C262.519 34.5495 262.119 33.605 261.761 32.823C261.328 31.8784 260.961 31.1634 260.818 30.9099C259.992 29.4271 259.521 28.8293 258.528 29.018C256.565 29.4821 254.557 29.3959 252.747 28.9032C250.935 28.4033 249.323 27.4996 248.03 26.1171C247.215 25.2514 247.009 24.6848 247.246 24.2254C247.485 23.7686 248.16 23.4362 249.083 23.1155C250.005 22.7951 251.17 22.4961 252.364 22.0753C252.849 21.9031 253.337 21.7069 253.813 21.4801C253.363 20.9468 252.922 20.4419 252.52 20.0042C251.821 19.2369 251.255 18.6697 251.044 18.4735C249.806 17.3186 249.174 16.8953 248.288 17.3806C246.559 18.4307 244.621 18.9662 242.751 19.0596C240.873 19.1455 239.063 18.7845 237.417 17.8733C236.38 17.2992 236.013 16.8259 236.1 16.3165C236.188 15.8094 236.731 15.2783 237.51 14.6903C238.289 14.0972 239.307 13.4516 240.316 12.6791C240.368 12.6383 240.42 12.5977 240.472 12.5571C239.314 12.4829 238.215 12.098 237.109 11.5839C235.871 11.0028 234.331 9.91932 233.119 8.69963C231.918 7.47273 231.032 6.081 231.399 4.74879C231.766 3.42379 233.327 2.70652 235.224 2.56784C237.117 2.41971 239.307 2.87158 240.771 3.56047C242.021 4.14405 243.134 4.88771 243.949 5.84922C243.97 4.6009 243.807 3.38595 243.71 2.39108C243.608 1.34841 243.586 0.544494 243.987 0.193203C244.382 -0.158586 245.211 -0.0652242 246.722 0.767319C249.121 2.09456 250.893 4.0843 251.833 6.20325C252.783 8.32195 252.911 10.5607 252.271 12.5168C251.997 13.5261 252.581 14.0761 253.931 15.3221C254.161 15.5347 254.81 16.1089 255.629 16.8836C256.101 17.3285 256.626 17.8452 257.164 18.3904C257.434 17.9024 257.659 17.3908 257.844 16.867C258.279 15.6331 258.504 14.3584 258.725 13.3346C258.945 12.3109 259.17 11.5411 259.658 11.3282C260.139 11.1201 260.899 11.4622 262.083 12.7199C263.961 14.7266 265.041 17.166 265.294 19.4734C265.555 21.7863 264.998 23.9553 263.797 25.6196C263.229 26.495 263.617 27.2003 264.525 28.8051C264.676 29.0803 265.124 29.8264 265.666 30.8165C266.114 31.6322 266.621 32.6101 267.106 33.6169C267.547 33.2176 267.949 32.7752 268.314 32.3089C269.164 31.2256 269.811 30.0273 270.37 29.0755C270.928 28.1285 271.407 27.4304 271.963 27.3873C272.515 27.3417 273.164 27.947 273.926 29.621C275.139 32.2877 275.395 35.1167 274.859 37.5152C274.332 39.9235 273.027 41.8896 271.257 43.1185C270.388 43.7879 270.53 44.6274 270.869 46.5455C270.924 46.8731 271.101 47.7724 271.293 48.9512C271.471 50.0562 271.651 51.4075 271.776 52.7467C272.359 52.5169 272.918 52.2276 273.448 51.9022C274.679 51.1489 275.755 50.2043 276.652 49.4703C277.547 48.7384 278.272 48.2243 278.838 48.3868C279.399 48.5494 279.819 49.3961 279.963 51.3426C280.185 54.4419 279.394 57.3332 277.983 59.5022C276.574 61.6856 274.561 63.1348 272.363 63.6754C271.816 63.8429 271.492 64.1442 271.262 64.6583C271.034 65.1701 270.899 65.8971 270.7 66.9039C270.634 67.2483 270.471 68.2026 270.21 69.4342C269.952 70.6681 269.59 72.1748 269.168 73.6218C269.147 73.6935 269.125 73.7652 269.104 73.8372C269.755 73.8416 270.406 73.7819 271.046 73.6746C272.545 73.4256 273.964 72.921 275.124 72.5527C276.284 72.1848 277.194 71.9669 277.684 72.3496C278.168 72.73 278.253 73.7343 277.627 75.7146C277.125 77.2858 276.393 78.7156 275.503 79.9381C274.615 81.1625 273.568 82.1837 272.445 82.9655C270.193 84.532 267.65 85.1228 265.298 84.7449C264.09 84.6132 263.569 85.3999 262.373 87.1984C262.167 87.5047 261.62 88.3656 260.864 89.4536C260.109 90.5396 259.138 91.8474 258.134 93.0743C257.973 93.273 257.812 93.4691 257.648 93.6628C258.266 93.9424 258.913 94.1603 259.567 94.3273C261.115 94.7267 262.698 94.8442 263.974 94.9801C265.248 95.1215 266.219 95.2936 266.529 95.8747C266.837 96.4488 266.494 97.4578 265.049 99.1105C263.901 100.419 262.584 101.488 261.203 102.289C259.825 103.092 258.378 103.626 256.961 103.896C255.543 104.164 254.15 104.169 252.857 103.929C251.564 103.688 250.368 103.205 249.316 102.511C248.767 102.189 248.279 102.153 247.692 102.353C247.102 102.552 246.413 102.99 245.449 103.587C245.118 103.788 244.22 104.374 243.021 105.082C241.823 105.787 240.319 106.61 238.815 107.333C237.363 108.036 232.698 109.579 231.499 110Z" fill="white" fill-opacity="0.3"/>
<path d="M122.18 37V35.14L126.11 31.465C126.39 31.205 126.595 30.975 126.725 30.775C126.865 30.575 126.955 30.395 126.995 30.235C127.045 30.065 127.07 29.91 127.07 29.77C127.07 29.43 126.955 29.165 126.725 28.975C126.505 28.785 126.17 28.69 125.72 28.69C125.34 28.69 124.985 28.775 124.655 28.945C124.325 29.115 124.055 29.37 123.845 29.71L121.64 28.48C122.03 27.82 122.595 27.29 123.335 26.89C124.075 26.49 124.96 26.29 125.99 26.29C126.8 26.29 127.51 26.42 128.12 26.68C128.73 26.94 129.205 27.31 129.545 27.79C129.895 28.27 130.07 28.835 130.07 29.485C130.07 29.825 130.025 30.165 129.935 30.505C129.845 30.835 129.67 31.19 129.41 31.57C129.16 31.94 128.785 32.355 128.285 32.815L125.165 35.695L124.67 34.645H130.355V37H122.18ZM135.854 37.21C134.954 37.21 134.154 36.995 133.454 36.565C132.764 36.135 132.219 35.515 131.819 34.705C131.419 33.895 131.219 32.91 131.219 31.75C131.219 30.59 131.419 29.605 131.819 28.795C132.219 27.985 132.764 27.365 133.454 26.935C134.154 26.505 134.954 26.29 135.854 26.29C136.744 26.29 137.534 26.505 138.224 26.935C138.924 27.365 139.474 27.985 139.874 28.795C140.274 29.605 140.474 30.59 140.474 31.75C140.474 32.91 140.274 33.895 139.874 34.705C139.474 35.515 138.924 36.135 138.224 36.565C137.534 36.995 136.744 37.21 135.854 37.21ZM135.854 34.78C136.174 34.78 136.454 34.68 136.694 34.48C136.944 34.28 137.139 33.96 137.279 33.52C137.419 33.07 137.489 32.48 137.489 31.75C137.489 31.01 137.419 30.42 137.279 29.98C137.139 29.54 136.944 29.22 136.694 29.02C136.454 28.82 136.174 28.72 135.854 28.72C135.534 28.72 135.249 28.82 134.999 29.02C134.759 29.22 134.564 29.54 134.414 29.98C134.274 30.42 134.204 31.01 134.204 31.75C134.204 32.48 134.274 33.07 134.414 33.52C134.564 33.96 134.759 34.28 134.999 34.48C135.249 34.68 135.534 34.78 135.854 34.78ZM141.325 37V35.14L145.255 31.465C145.535 31.205 145.74 30.975 145.87 30.775C146.01 30.575 146.1 30.395 146.14 30.235C146.19 30.065 146.215 29.91 146.215 29.77C146.215 29.43 146.1 29.165 145.87 28.975C145.65 28.785 145.315 28.69 144.865 28.69C144.485 28.69 144.13 28.775 143.8 28.945C143.47 29.115 143.2 29.37 142.99 29.71L140.785 28.48C141.175 27.82 141.74 27.29 142.48 26.89C143.22 26.49 144.105 26.29 145.135 26.29C145.945 26.29 146.655 26.42 147.265 26.68C147.875 26.94 148.35 27.31 148.69 27.79C149.04 28.27 149.215 28.835 149.215 29.485C149.215 29.825 149.17 30.165 149.08 30.505C148.99 30.835 148.815 31.19 148.555 31.57C148.305 31.94 147.93 32.355 147.43 32.815L144.31 35.695L143.815 34.645H149.5V37H141.325ZM150.172 34.99V33.055L154.882 26.5H157.957L153.382 33.055L151.972 32.635H160.177V34.99H150.172ZM155.722 37V34.99L155.812 32.635V30.85H158.617V37H155.722ZM42.1437 44.5H45.1137V55H42.1437V44.5ZM38.0937 55H35.1237V44.5H38.0937V55ZM42.3537 50.905H37.8837V48.445H42.3537V50.905ZM52.5037 55.21C51.6637 55.21 50.8887 55.075 50.1787 54.805C49.4687 54.535 48.8487 54.155 48.3187 53.665C47.7987 53.165 47.3937 52.585 47.1037 51.925C46.8137 51.265 46.6687 50.54 46.6687 49.75C46.6687 48.96 46.8137 48.235 47.1037 47.575C47.3937 46.915 47.7987 46.34 48.3187 45.85C48.8487 45.35 49.4687 44.965 50.1787 44.695C50.8887 44.425 51.6637 44.29 52.5037 44.29C53.3537 44.29 54.1287 44.425 54.8287 44.695C55.5387 44.965 56.1537 45.35 56.6737 45.85C57.1937 46.34 57.5987 46.915 57.8887 47.575C58.1887 48.235 58.3387 48.96 58.3387 49.75C58.3387 50.54 58.1887 51.27 57.8887 51.94C57.5987 52.6 57.1937 53.175 56.6737 53.665C56.1537 54.155 55.5387 54.535 54.8287 54.805C54.1287 55.075 53.3537 55.21 52.5037 55.21ZM52.5037 52.75C52.9037 52.75 53.2737 52.68 53.6137 52.54C53.9637 52.4 54.2637 52.2 54.5137 51.94C54.7737 51.67 54.9737 51.35 55.1137 50.98C55.2637 50.61 55.3387 50.2 55.3387 49.75C55.3387 49.29 55.2637 48.88 55.1137 48.52C54.9737 48.15 54.7737 47.835 54.5137 47.575C54.2637 47.305 53.9637 47.1 53.6137 46.96C53.2737 46.82 52.9037 46.75 52.5037 46.75C52.1037 46.75 51.7287 46.82 51.3787 46.96C51.0387 47.1 50.7387 47.305 50.4787 47.575C50.2287 47.835 50.0287 48.15 49.8787 48.52C49.7387 48.88 49.6687 49.29 49.6687 49.75C49.6687 50.2 49.7387 50.61 49.8787 50.98C50.0287 51.35 50.2287 51.67 50.4787 51.94C50.7387 52.2 51.0387 52.4 51.3787 52.54C51.7287 52.68 52.1037 52.75 52.5037 52.75ZM59.8942 55V44.5H62.3392L68.1292 51.49H66.9742V44.5H69.8842V55H67.4392L61.6492 48.01H62.8042V55H59.8942ZM77.2742 55.21C76.4342 55.21 75.6592 55.075 74.9492 54.805C74.2392 54.535 73.6192 54.155 73.0892 53.665C72.5692 53.165 72.1642 52.585 71.8742 51.925C71.5842 51.265 71.4392 50.54 71.4392 49.75C71.4392 48.96 71.5842 48.235 71.8742 47.575C72.1642 46.915 72.5692 46.34 73.0892 45.85C73.6192 45.35 74.2392 44.965 74.9492 44.695C75.6592 44.425 76.4342 44.29 77.2742 44.29C78.1242 44.29 78.8992 44.425 79.5992 44.695C80.3092 44.965 80.9242 45.35 81.4442 45.85C81.9642 46.34 82.3692 46.915 82.6592 47.575C82.9592 48.235 83.1092 48.96 83.1092 49.75C83.1092 50.54 82.9592 51.27 82.6592 51.94C82.3692 52.6 81.9642 53.175 81.4442 53.665C80.9242 54.155 80.3092 54.535 79.5992 54.805C78.8992 55.075 78.1242 55.21 77.2742 55.21ZM77.2742 52.75C77.6742 52.75 78.0442 52.68 78.3842 52.54C78.7342 52.4 79.0342 52.2 79.2842 51.94C79.5442 51.67 79.7442 51.35 79.8842 50.98C80.0342 50.61 80.1092 50.2 80.1092 49.75C80.1092 49.29 80.0342 48.88 79.8842 48.52C79.7442 48.15 79.5442 47.835 79.2842 47.575C79.0342 47.305 78.7342 47.1 78.3842 46.96C78.0442 46.82 77.6742 46.75 77.2742 46.75C76.8742 46.75 76.4992 46.82 76.1492 46.96C75.8092 47.1 75.5092 47.305 75.2492 47.575C74.9992 47.835 74.7992 48.15 74.6492 48.52C74.5092 48.88 74.4392 49.29 74.4392 49.75C74.4392 50.2 74.5092 50.61 74.6492 50.98C74.7992 51.35 74.9992 51.67 75.2492 51.94C75.5092 52.2 75.8092 52.4 76.1492 52.54C76.4992 52.68 76.8742 52.75 77.2742 52.75ZM84.6647 55V44.5H89.4647C90.4247 44.5 91.2497 44.655 91.9397 44.965C92.6397 45.275 93.1797 45.725 93.5597 46.315C93.9397 46.895 94.1297 47.585 94.1297 48.385C94.1297 49.175 93.9397 49.86 93.5597 50.44C93.1797 51.01 92.6397 51.45 91.9397 51.76C91.2497 52.06 90.4247 52.21 89.4647 52.21H86.3147L87.6347 50.965V55H84.6647ZM91.1597 55L88.5497 51.175H91.7147L94.3397 55H91.1597ZM87.6347 51.28L86.3147 49.915H89.2847C89.9047 49.915 90.3647 49.78 90.6647 49.51C90.9747 49.24 91.1297 48.865 91.1297 48.385C91.1297 47.895 90.9747 47.515 90.6647 47.245C90.3647 46.975 89.9047 46.84 89.2847 46.84H86.3147L87.6347 45.475V51.28ZM94.5083 55L99.1433 44.5H102.068L106.718 55H103.628L99.9983 45.955H101.168L97.5383 55H94.5083ZM97.0433 52.96L97.8083 50.77H102.938L103.703 52.96H97.0433ZM107.56 55V44.5H112.93C114.31 44.5 115.34 44.755 116.02 45.265C116.7 45.765 117.04 46.425 117.04 47.245C117.04 47.785 116.895 48.26 116.605 48.67C116.325 49.07 115.925 49.39 115.405 49.63C114.895 49.86 114.285 49.975 113.575 49.975L113.875 49.255C114.615 49.255 115.26 49.37 115.81 49.6C116.36 49.82 116.785 50.145 117.085 50.575C117.395 50.995 117.55 51.51 117.55 52.12C117.55 53.03 117.18 53.74 116.44 54.25C115.71 54.75 114.64 55 113.23 55H107.56ZM110.5 52.855H112.99C113.5 52.855 113.885 52.77 114.145 52.6C114.415 52.42 114.55 52.15 114.55 51.79C114.55 51.43 114.415 51.165 114.145 50.995C113.885 50.815 113.5 50.725 112.99 50.725H110.29V48.67H112.54C113.04 48.67 113.415 48.585 113.665 48.415C113.915 48.245 114.04 47.99 114.04 47.65C114.04 47.31 113.915 47.06 113.665 46.9C113.415 46.73 113.04 46.645 112.54 46.645H110.5V52.855ZM119.089 55V44.5H122.059V52.645H127.069V55H119.089ZM130.974 48.565H135.849V50.785H130.974V48.565ZM131.184 52.705H136.674V55H128.244V44.5H136.479V46.795H131.184V52.705ZM142.687 55V44.5H145.132L149.482 51.64H148.192L152.422 44.5H154.867L154.897 55H152.167L152.137 48.655H152.602L149.437 53.965H148.117L144.862 48.655H145.432V55H142.687ZM159.729 48.565H164.604V50.785H159.729V48.565ZM159.939 52.705H165.429V55H156.999V44.5H165.234V46.795H159.939V52.705ZM167.077 55V44.5H169.522L175.312 51.49H174.157V44.5H177.067V55H174.622L168.832 48.01H169.987V55H167.077ZM181.397 55V46.855H178.172V44.5H187.577V46.855H184.367V55H181.397ZM188.683 55V44.5H191.653V55H188.683ZM199.061 55.21C198.221 55.21 197.446 55.075 196.736 54.805C196.026 54.535 195.406 54.155 194.876 53.665C194.356 53.165 193.951 52.585 193.661 51.925C193.371 51.265 193.226 50.54 193.226 49.75C193.226 48.96 193.371 48.235 193.661 47.575C193.951 46.915 194.356 46.34 194.876 45.85C195.406 45.35 196.026 44.965 196.736 44.695C197.446 44.425 198.221 44.29 199.061 44.29C199.911 44.29 200.686 44.425 201.386 44.695C202.096 44.965 202.711 45.35 203.231 45.85C203.751 46.34 204.156 46.915 204.446 47.575C204.746 48.235 204.896 48.96 204.896 49.75C204.896 50.54 204.746 51.27 204.446 51.94C204.156 52.6 203.751 53.175 203.231 53.665C202.711 54.155 202.096 54.535 201.386 54.805C200.686 55.075 199.911 55.21 199.061 55.21ZM199.061 52.75C199.461 52.75 199.831 52.68 200.171 52.54C200.521 52.4 200.821 52.2 201.071 51.94C201.331 51.67 201.531 51.35 201.671 50.98C201.821 50.61 201.896 50.2 201.896 49.75C201.896 49.29 201.821 48.88 201.671 48.52C201.531 48.15 201.331 47.835 201.071 47.575C200.821 47.305 200.521 47.1 200.171 46.96C199.831 46.82 199.461 46.75 199.061 46.75C198.661 46.75 198.286 46.82 197.936 46.96C197.596 47.1 197.296 47.305 197.036 47.575C196.786 47.835 196.586 48.15 196.436 48.52C196.296 48.88 196.226 49.29 196.226 49.75C196.226 50.2 196.296 50.61 196.436 50.98C196.586 51.35 196.786 51.67 197.036 51.94C197.296 52.2 197.596 52.4 197.936 52.54C198.286 52.68 198.661 52.75 199.061 52.75ZM206.452 55V44.5H208.897L214.687 51.49H213.532V44.5H216.442V55H213.997L208.207 48.01H209.362V55H206.452ZM222.902 55V44.5H228.272C229.652 44.5 230.682 44.755 231.362 45.265C232.042 45.765 232.382 46.425 232.382 47.245C232.382 47.785 232.237 48.26 231.947 48.67C231.667 49.07 231.267 49.39 230.747 49.63C230.237 49.86 229.627 49.975 228.917 49.975L229.217 49.255C229.957 49.255 230.602 49.37 231.152 49.6C231.702 49.82 232.127 50.145 232.427 50.575C232.737 50.995 232.892 51.51 232.892 52.12C232.892 53.03 232.522 53.74 231.782 54.25C231.052 54.75 229.982 55 228.572 55H222.902ZM225.842 52.855H228.332C228.842 52.855 229.227 52.77 229.487 52.6C229.757 52.42 229.892 52.15 229.892 51.79C229.892 51.43 229.757 51.165 229.487 50.995C229.227 50.815 228.842 50.725 228.332 50.725H225.632V48.67H227.882C228.382 48.67 228.757 48.585 229.007 48.415C229.257 48.245 229.382 47.99 229.382 47.65C229.382 47.31 229.257 47.06 229.007 46.9C228.757 46.73 228.382 46.645 227.882 46.645H225.842V52.855ZM236.866 55V50.56L237.556 52.345L232.861 44.5H235.996L239.386 50.185H237.571L240.976 44.5H243.856L239.176 52.345L239.836 50.56V55H236.866ZM46.4214 73.21C44.8714 73.21 43.6614 72.785 42.7914 71.935C41.9214 71.085 41.4864 69.88 41.4864 68.32V62.5H44.4564V68.23C44.4564 69.13 44.6314 69.775 44.9814 70.165C45.3414 70.555 45.8314 70.75 46.4514 70.75C47.0714 70.75 47.5564 70.555 47.9064 70.165C48.2564 69.775 48.4314 69.13 48.4314 68.23V62.5H51.3564V68.32C51.3564 69.88 50.9214 71.085 50.0514 71.935C49.1814 72.785 47.9714 73.21 46.4214 73.21ZM53.3684 73V62.5H55.8134L61.6034 69.49H60.4484V62.5H63.3584V73H60.9134L55.1234 66.01H56.2784V73H53.3684ZM65.4533 73V62.5H68.4233V73H65.4533ZM73.732 73L69.247 62.5H72.457L76.237 71.59H74.347L78.217 62.5H81.157L76.657 73H73.732ZM84.5017 66.565H89.3767V68.785H84.5017V66.565ZM84.7117 70.705H90.2017V73H81.7717V62.5H90.0067V64.795H84.7117V70.705ZM91.8498 73V62.5H96.6498C97.6098 62.5 98.4348 62.655 99.1248 62.965C99.8248 63.275 100.365 63.725 100.745 64.315C101.125 64.895 101.315 65.585 101.315 66.385C101.315 67.175 101.125 67.86 100.745 68.44C100.365 69.01 99.8248 69.45 99.1248 69.76C98.4348 70.06 97.6098 70.21 96.6498 70.21H93.4998L94.8198 68.965V73H91.8498ZM98.3448 73L95.7348 69.175H98.8998L101.525 73H98.3448ZM94.8198 69.28L93.4998 67.915H96.4698C97.0898 67.915 97.5498 67.78 97.8498 67.51C98.1598 67.24 98.3148 66.865 98.3148 66.385C98.3148 65.895 98.1598 65.515 97.8498 65.245C97.5498 64.975 97.0898 64.84 96.4698 64.84H93.4998L94.8198 63.475V69.28ZM106.643 73.21C105.783 73.21 104.953 73.105 104.153 72.895C103.363 72.675 102.718 72.395 102.218 72.055L103.193 69.865C103.663 70.165 104.203 70.415 104.813 70.615C105.433 70.805 106.048 70.9 106.658 70.9C107.068 70.9 107.398 70.865 107.648 70.795C107.898 70.715 108.078 70.615 108.188 70.495C108.308 70.365 108.368 70.215 108.368 70.045C108.368 69.805 108.258 69.615 108.038 69.475C107.818 69.335 107.533 69.22 107.183 69.13C106.833 69.04 106.443 68.95 106.013 68.86C105.593 68.77 105.168 68.655 104.738 68.515C104.318 68.375 103.933 68.195 103.583 67.975C103.233 67.745 102.948 67.45 102.728 67.09C102.508 66.72 102.398 66.255 102.398 65.695C102.398 65.065 102.568 64.495 102.908 63.985C103.258 63.475 103.778 63.065 104.468 62.755C105.158 62.445 106.018 62.29 107.048 62.29C107.738 62.29 108.413 62.37 109.073 62.53C109.743 62.68 110.338 62.905 110.858 63.205L109.943 65.41C109.443 65.14 108.948 64.94 108.458 64.81C107.968 64.67 107.493 64.6 107.033 64.6C106.623 64.6 106.293 64.645 106.043 64.735C105.793 64.815 105.613 64.925 105.503 65.065C105.393 65.205 105.338 65.365 105.338 65.545C105.338 65.775 105.443 65.96 105.653 66.1C105.873 66.23 106.158 66.34 106.508 66.43C106.868 66.51 107.258 66.595 107.678 66.685C108.108 66.775 108.533 66.89 108.953 67.03C109.383 67.16 109.773 67.34 110.123 67.57C110.473 67.79 110.753 68.085 110.963 68.455C111.183 68.815 111.293 69.27 111.293 69.82C111.293 70.43 111.118 70.995 110.768 71.515C110.428 72.025 109.913 72.435 109.223 72.745C108.543 73.055 107.683 73.21 106.643 73.21ZM112.665 73V62.5H115.635V73H112.665ZM119.983 73V64.855H116.758V62.5H126.163V64.855H122.953V73H119.983ZM129.676 73V68.56L130.366 70.345L125.671 62.5H128.806L132.196 68.185H130.381L133.786 62.5H136.666L131.986 70.345L132.646 68.56V73H129.676ZM147.081 73.21C146.241 73.21 145.466 73.075 144.756 72.805C144.046 72.535 143.426 72.155 142.896 71.665C142.376 71.165 141.971 70.585 141.681 69.925C141.391 69.265 141.246 68.54 141.246 67.75C141.246 66.96 141.391 66.235 141.681 65.575C141.971 64.915 142.376 64.34 142.896 63.85C143.426 63.35 144.046 62.965 144.756 62.695C145.466 62.425 146.241 62.29 147.081 62.29C147.931 62.29 148.706 62.425 149.406 62.695C150.116 62.965 150.731 63.35 151.251 63.85C151.771 64.34 152.176 64.915 152.466 65.575C152.766 66.235 152.916 66.96 152.916 67.75C152.916 68.54 152.766 69.27 152.466 69.94C152.176 70.6 151.771 71.175 151.251 71.665C150.731 72.155 150.116 72.535 149.406 72.805C148.706 73.075 147.931 73.21 147.081 73.21ZM147.081 70.75C147.481 70.75 147.851 70.68 148.191 70.54C148.541 70.4 148.841 70.2 149.091 69.94C149.351 69.67 149.551 69.35 149.691 68.98C149.841 68.61 149.916 68.2 149.916 67.75C149.916 67.29 149.841 66.88 149.691 66.52C149.551 66.15 149.351 65.835 149.091 65.575C148.841 65.305 148.541 65.1 148.191 64.96C147.851 64.82 147.481 64.75 147.081 64.75C146.681 64.75 146.306 64.82 145.956 64.96C145.616 65.1 145.316 65.305 145.056 65.575C144.806 65.835 144.606 66.15 144.456 66.52C144.316 66.88 144.246 67.29 144.246 67.75C144.246 68.2 144.316 68.61 144.456 68.98C144.606 69.35 144.806 69.67 145.056 69.94C145.316 70.2 145.616 70.4 145.956 70.54C146.306 70.68 146.681 70.75 147.081 70.75ZM157.232 67.105H162.077V69.4H157.232V67.105ZM157.442 73H154.472V62.5H162.707V64.795H157.442V73ZM170.696 73V64.855H167.471V62.5H176.876V64.855H173.666V73H170.696ZM176.195 73L180.83 62.5H183.755L188.405 73H185.315L181.685 63.955H182.855L179.225 73H176.195ZM178.73 70.96L179.495 68.77H184.625L185.39 70.96H178.73ZM189.247 73V62.5H194.047C195.007 62.5 195.832 62.655 196.522 62.965C197.222 63.275 197.762 63.725 198.142 64.315C198.522 64.895 198.712 65.585 198.712 66.385C198.712 67.175 198.522 67.86 198.142 68.44C197.762 69.01 197.222 69.45 196.522 69.76C195.832 70.06 195.007 70.21 194.047 70.21H190.897L192.217 68.965V73H189.247ZM195.742 73L193.132 69.175H196.297L198.922 73H195.742ZM192.217 69.28L190.897 67.915H193.867C194.487 67.915 194.947 67.78 195.247 67.51C195.557 67.24 195.712 66.865 195.712 66.385C195.712 65.895 195.557 65.515 195.247 65.245C194.947 64.975 194.487 64.84 193.867 64.84H190.897L192.217 63.475V69.28ZM200.351 73V62.5H202.796L208.586 69.49H207.431V62.5H210.341V73H207.896L202.106 66.01H203.261V73H200.351ZM217.731 73.21C216.891 73.21 216.116 73.075 215.406 72.805C214.696 72.535 214.076 72.155 213.546 71.665C213.026 71.165 212.621 70.585 212.331 69.925C212.041 69.265 211.896 68.54 211.896 67.75C211.896 66.96 212.041 66.235 212.331 65.575C212.621 64.915 213.026 64.34 213.546 63.85C214.076 63.35 214.696 62.965 215.406 62.695C216.116 62.425 216.891 62.29 217.731 62.29C218.581 62.29 219.356 62.425 220.056 62.695C220.766 62.965 221.381 63.35 221.901 63.85C222.421 64.34 222.826 64.915 223.116 65.575C223.416 66.235 223.566 66.96 223.566 67.75C223.566 68.54 223.416 69.27 223.116 69.94C222.826 70.6 222.421 71.175 221.901 71.665C221.381 72.155 220.766 72.535 220.056 72.805C219.356 73.075 218.581 73.21 217.731 73.21ZM217.731 70.75C218.131 70.75 218.501 70.68 218.841 70.54C219.191 70.4 219.491 70.2 219.741 69.94C220.001 69.67 220.201 69.35 220.341 68.98C220.491 68.61 220.566 68.2 220.566 67.75C220.566 67.29 220.491 66.88 220.341 66.52C220.201 66.15 220.001 65.835 219.741 65.575C219.491 65.305 219.191 65.1 218.841 64.96C218.501 64.82 218.131 64.75 217.731 64.75C217.331 64.75 216.956 64.82 216.606 64.96C216.266 65.1 215.966 65.305 215.706 65.575C215.456 65.835 215.256 66.15 215.106 66.52C214.966 66.88 214.896 67.29 214.896 67.75C214.896 68.2 214.966 68.61 215.106 68.98C215.256 69.35 215.456 69.67 215.706 69.94C215.966 70.2 216.266 70.4 216.606 70.54C216.956 70.68 217.331 70.75 217.731 70.75ZM227.365 73L223.96 62.5H227.02L229.885 71.59H228.34L231.355 62.5H234.085L236.935 71.59H235.45L238.405 62.5H241.24L237.835 73H234.655L232.225 65.275H233.08L230.545 73H227.365Z" fill="white" fill-opacity="0.3"/>
</svg>
