<svg width="417" height="531" viewBox="0 0 417 531" fill="none" xmlns="http://www.w3.org/2000/svg">
<path d="M244.193 519.488C241.094 515.499 239.183 510.725 238.676 505.709C238.169 500.693 239.086 495.637 241.324 491.114C247.195 479.764 249.497 466.788 247.996 454.011C246.766 444.895 243.739 436.109 239.089 428.159C234.498 420.312 228.359 413.471 221.041 408.048C196.098 389.4 178.596 362.572 171.633 332.316C114.653 406.621 136.505 448.801 163.794 485.97C166.993 490.327 168.678 495.603 168.594 500.998C168.51 506.393 166.661 511.614 163.327 515.871C159.929 520.178 155.37 523.435 150.182 525.262C145.055 527.053 139.513 527.319 134.236 526.026C97.3724 517.065 62.6773 500.007 39.158 472.828C25.826 457.73 15.5618 440.206 8.93321 421.223C2.22912 402.079 -0.748534 381.839 0.159357 361.587C0.159357 361.587 -4.27762 279.849 94.8036 199.77C94.8036 199.77 211.9 100.941 171.266 27.8643C169.769 24.2696 169.326 20.3268 169.987 16.4918C170.648 12.6568 172.387 9.08642 175.003 6.19353C177.545 3.35718 180.903 1.36765 184.622 0.494927C188.34 -0.377793 192.238 -0.0914399 195.786 1.31513L200.657 3.23994C244.762 30.9741 279.234 71.5219 299.405 119.392C318.754 166.285 318.621 220.943 305.543 269.627C316.385 259.937 325.426 248.355 332.265 235.346L333.233 233.222C339.838 217.392 360.622 222.436 368.428 232.79C371.297 237.337 444.891 343.733 405.358 433.502C390.905 460.7 369.793 483.835 343.975 500.771C322.311 515.072 298.103 525.13 272.65 530.406C267.389 531.508 261.919 531.07 256.903 529.145C251.842 527.188 247.438 523.852 244.193 519.521V519.488ZM185.278 261.928C188.393 260.313 192.002 259.915 195.397 260.811C198.791 261.708 201.727 263.834 203.626 266.773C204.961 268.731 205.828 270.955 206.128 273.344L207.63 284.926C208.297 301.885 208.097 319.606 214.735 335.901C221.608 352.627 232.283 367.428 245.828 378.977C263.277 390.398 276.784 406.869 284.526 426.168C291.865 444.885 292.866 465.66 287.328 485.007C304.271 479.691 320.018 471.16 333.7 459.885L337.136 457.097C348.345 447.905 357.586 436.422 364.258 423.347C370.963 410.305 375 395.968 376.068 381.233C378.236 347.217 366.593 313.068 348.478 282.603C340.205 294.55 328.796 303.809 315.618 309.285C307.378 312.77 298.638 314.927 289.73 315.591C284.628 315.917 279.541 314.764 275.085 312.272C270.56 309.714 266.849 305.942 264.376 301.387C262.329 297.713 261.159 293.621 260.957 289.426C260.754 285.231 261.525 281.045 263.208 277.194C276.953 244.937 281.223 209.162 275.385 174.415C268.474 134.663 249.335 98.0219 220.607 69.5464C215.403 142.722 139.974 210.854 124.495 225.523C122.095 227.772 119.602 229.919 117.022 231.961C36.0888 297.172 41.6267 356.576 41.6267 359.197C40.0195 382.796 45.3393 406.351 56.9393 426.997C69.1159 448.403 86.6303 466.058 107.648 478.104C83.3943 425.073 83.3943 361.421 172.901 270.158L185.311 261.862L185.278 261.928Z" fill="#FF6B00"/>
</svg>
