<svg width="988" height="135" viewBox="0 0 988 135" fill="none" xmlns="http://www.w3.org/2000/svg">
<path d="M83.7141 62.4L64.3141 135H0.114062L36.3141 -2.38419e-06H100.514L89.9141 39.6L151.914 -2.38419e-06H284.914L248.714 135H184.514L217.714 10.8L183.914 32.4L156.514 135H92.3141L111.714 62.4H83.7141ZM479.344 135H265.544L301.744 -2.38419e-06H434.744L498.944 62.4H415.944L362.944 10.8L333.144 122.6H418.544L371.544 76.8H454.344L486.544 108.2L479.344 135ZM571.8 62.4L552.4 135H488.2L524.4 -2.38419e-06H588.6L578 39.6L640 -2.38419e-06H773L736.8 135H672.6L705.8 10.8L672 32.4L644.6 135H580.4L599.8 62.4H571.8ZM967.43 135H753.63L789.83 -2.38419e-06H922.83L987.03 62.4H904.03L851.03 10.8L821.23 122.6H906.63L859.63 76.8H942.43L974.63 108.2L967.43 135Z" fill="white" fill-opacity="0.3"/>
</svg>
