<svg width="760" height="810" viewBox="0 0 760 810" fill="none" xmlns="http://www.w3.org/2000/svg">
<path fill-rule="evenodd" clip-rule="evenodd" d="M45.25 1.49647C44.563 2.27747 44 4.06046 44 5.45846C44 6.85646 43.55 8.00047 43 8.00047C42.45 8.00047 42 9.35047 42 11.0005C42 12.6505 41.55 14.0005 41 14.0005C40.45 14.0005 40 14.9005 40 16.0005C40 17.1005 39.55 18.0005 39 18.0005C38.45 18.0005 38 18.9005 38 20.0005C38 21.1005 37.55 22.0005 37 22.0005C36.45 22.0005 36 23.3505 36 25.0005C36 26.6505 35.55 28.0005 35 28.0005C34.417 28.0005 34 31.3335 34 36.0005C34 40.6675 33.583 44.0005 33 44.0005C32.367 44.0005 32 51.3335 32 64.0005C32 76.6675 31.633 84.0005 31 84.0005C30.4 84.0005 30 88.0005 30 94.0005C30 100 29.6 104 29 104C28.417 104 28 107.333 28 112C28 116.667 27.583 120 27 120C26.429 120 26 123 26 127C26 131 25.571 134 25 134C24.429 134 24 137 24 141C24 145 23.571 148 23 148C22.367 148 22 155.333 22 168C22 180.667 21.633 188 21 188C20.444 188 20 190.667 20 194C20 197.333 19.556 200 19 200C18.45 200 18 202.25 18 205C18 207.75 17.55 210 17 210C16.4 210 16 214 16 220C16 226 15.6 230 15 230C14.45 230 14 232.25 14 235C14 237.75 13.55 240 13 240C12.367 240 12 247.333 12 260C12 272.667 11.633 280 11 280C10.4 280 10 284 10 290C10 296 9.6 300 9 300C8.444 300 8 302.667 8 306C8 309.333 7.556 312 7 312C6.407 312 6 315.667 6 321C6 326.333 5.593 330 5 330C4.417 330 4 333.333 4 338C4 342.667 3.583 346 3 346C2.375 346 2 352 2 362C2 372 1.625 378 1 378C0.37 378 0 384.667 0 396C0 407.333 0.37 414 1 414C1.55 414 2 414.695 2 415.545C2 417.546 6.454 422 8.455 422C9.305 422 10 422.45 10 423C10 423.55 12.25 424 15 424C17.75 424 20 424.45 20 425C20 425.627 26.333 426 37 426C47.667 426 54 426.373 54 427C54 427.55 56.25 428 59 428C61.75 428 64 427.55 64 427C64 426.397 68.175 426 74.526 426H85.053L89.526 421.526C93.133 417.92 94 416.369 94 413.526C94 411.587 94.45 410 95 410C95.571 410 96 407 96 403C96 399 96.429 396 97 396C97.55 396 98 394.2 98 392C98 389.8 98.45 388 99 388C99.55 388 100 386.65 100 385C100 383.35 100.45 382 101 382C101.55 382 102 380.2 102 378C102 375.8 102.45 374 103 374C103.6 374 104 370 104 364C104 358 104.4 354 105 354C105.622 354 106 348.333 106 339C106 329.667 106.378 324 107 324C107.6 324 108 320 108 314C108 308 108.4 304 109 304C109.619 304 110 298.667 110 290C110 281.333 110.381 276 111 276C111.6 276 112 272 112 266C112 260 112.4 256 113 256C113.6 256 114 252 114 246C114 240 114.4 236 115 236C115.625 236 116 230 116 220C116 210 116.375 204 117 204C117.556 204 118 201.333 118 198C118 194.667 118.444 192 119 192C119.556 192 120 189.333 120 186C120 182.667 120.444 180 121 180C121.55 180 122 177.75 122 175C122 172.25 122.45 170 123 170C123.55 170 124 167.75 124 165C124 162.25 124.45 160 125 160C125.593 160 126 156.333 126 151C126 145.667 126.407 142 127 142C127.55 142 128 139.75 128 137C128 134.25 128.45 132 129 132C129.55 132 130 130.65 130 129C130 127.35 130.45 126 131 126C131.55 126 132 125.1 132 124C132 122.9 132.45 122 133 122C133.55 122 134 121.1 134 120C134 118.9 134.45 118 135 118C135.55 118 136 117.1 136 116C136 114.9 136.45 114 137 114C137.55 114 138 113.293 138 112.429C138 110.408 140.408 108 142.429 108C143.293 108 144 107.55 144 107C144 106.45 144.9 106 146 106C147.1 106 148 105.55 148 105C148 104.367 155.333 104 168 104C180.667 104 188 104.367 188 105C188 105.615 193 106 201 106C209 106 214 106.385 214 107C214 107.55 214.9 108 216 108C217.556 108 218 108.667 218 111C218 112.65 218.45 114 219 114C219.633 114 220 121.333 220 134C220 146.667 219.633 154 219 154C218.4 154 218 158 218 164C218 170 217.6 174 217 174C216.45 174 216 175.8 216 178C216 180.2 215.55 182 215 182C214.45 182 214 183.8 214 186C214 188.2 213.55 190 213 190C212.417 190 212 193.333 212 198C212 202.667 211.583 206 211 206C210.368 206 210 213 210 225C210 237 209.632 244 209 244C208.373 244 208 250.333 208 261C208 271.667 207.627 278 207 278C206.444 278 206 280.667 206 284C206 287.333 205.556 290 205 290C204.444 290 204 292.667 204 296C204 299.333 203.556 302 203 302C202.417 302 202 305.333 202 310C202 314.667 201.583 318 201 318C200.407 318 200 321.667 200 327C200 332.333 199.593 336 199 336C198.407 336 198 339.667 198 345C198 350.333 197.593 354 197 354C196.429 354 196 357 196 361C196 365 195.571 368 195 368C194.429 368 194 371 194 375C194 379 193.571 382 193 382C192.444 382 192 384.667 192 388C192 391.333 191.556 394 191 394C190.4 394 190 398 190 404C190 410 189.6 414 189 414C188.373 414 188 420.333 188 431C188 441.667 187.627 448 187 448C186.407 448 186 451.667 186 457C186 462.333 185.593 466 185 466C184.429 466 184 469 184 473C184 477 183.571 480 183 480C182.381 480 182 485.333 182 494C182 502.667 181.619 508 181 508C180.375 508 180 514 180 524C180 534 179.625 540 179 540C178.357 540 178 550 178 568C178 586 177.643 596 177 596C176.407 596 176 599.667 176 605C176 610.333 175.593 614 175 614C174.417 614 174 617.333 174 622C174 626.667 173.583 630 173 630C172.444 630 172 632.667 172 636C172 639.333 171.556 642 171 642C170.407 642 170 645.667 170 651C170 656.333 169.593 660 169 660C168.385 660 168 665 168 673C168 681 167.615 686 167 686C166.45 686 166 688.069 166 690.599C166 694.419 165.492 695.672 163 698C161.35 699.541 160 701.318 160 701.948C160 702.577 158.895 704.195 157.545 705.545C155.164 707.927 154.655 708 140.545 708C131.515 708 126 707.621 126 707C126 706.348 110.333 706 81 706C51.667 706 36 706.348 36 707C36 707.55 35.293 708 34.429 708C32.133 708 30 710.508 30 713.208C30 714.501 29.1 716.207 28 717C26.826 717.847 26 719.589 26 721.221C26 722.749 25.55 724 25 724C24.417 724 24 727.333 24 732C24 736.667 23.583 740 23 740C22.357 740 22 750.19 22 768.571C22 798.494 22.212 800 26.429 800C27.293 800 28 800.45 28 801C28 801.55 28.801 802 29.779 802C30.758 802 32.207 802.9 33 804C33.793 805.1 35.242 806 36.221 806C37.199 806 38 806.45 38 807C38 807.55 39.8 808 42 808C44.2 808 46 808.45 46 809C46 809.66 82.667 810 154 810C225.333 810 262 809.66 262 809C262 808.385 267 808 275 808C283 808 288 807.615 288 807C288 806.45 290.25 806 293 806C295.75 806 298 805.55 298 805C298 804.45 300.25 804 303 804C305.75 804 308 803.55 308 803C308 802.347 324.667 802 356 802C387.333 802 404 802.347 404 803C404 803.659 433 804 489 804C545 804 574 804.341 574 805C574 805.55 575.35 806 577 806C578.65 806 580 805.55 580 805C580 804.4 584 804 590 804C596 804 600 803.6 600 803C600 802.45 602.507 802 605.571 802C612.462 802 614 800.644 614 794.571C614 792.057 614.45 790 615 790C615.556 790 616 787.333 616 784C616 780.667 616.444 778 617 778C617.55 778 618 777.1 618 776C618 774.9 618.45 774 619 774C619.55 774 620 773.1 620 772C620 770.9 620.45 770 621 770C621.55 770 622 768.65 622 767C622 765.35 622.45 764 623 764C623.55 764 624 762.65 624 761C624 759.35 624.45 758 625 758C625.583 758 626 754.667 626 750C626 745.333 626.417 742 627 742C627.603 742 628 737.828 628 731.482V720.964L621.519 714.482C615.109 708.073 614.976 708 609.519 708C606.483 708 604 707.55 604 707C604 706.355 593 706 573 706C557.642 706 542.563 706 527.429 706C515.899 706 514 705.232 514 700.571C514 694.922 512 688.367 512 682C512 679.054 516.911 630 517 630C517.611 630 518 625.333 518 618C518 610.667 518.389 606 519 606C519.638 606 520 597.667 520 583C520 568.333 520.362 560 521 560C521.641 560 522 550.667 522 534C522 517.333 522.359 508 523 508C523.611 508 524 503.333 524 496C524 488.667 524.389 484 525 484C525.571 484 526 481 526 477C526 473 526.429 470 527 470C527.571 470 528 467 528 463C528 459 528.429 456 529 456C529.593 456 530 452.333 530 447C530 441.667 530.407 438 531 438C531.622 438 532 432.333 532 423C532 413.667 532.378 408 533 408C533.556 408 534 405.333 534 402C534 398.667 534.444 396 535 396C535.55 396 536 393.75 536 391C536 388.25 536.45 386 537 386C537.556 386 538 383.333 538 380C538 376.667 538.444 374 539 374C539.6 374 540 370 540 364C540 358 540.4 354 541 354C541.615 354 542 349 542 341C542 333 542.385 328 543 328C543.571 328 544 325 544 321C544 317 544.429 314 545 314C545.593 314 546 310.333 546 305C546 299.667 546.407 296 547 296C547.583 296 548 292.667 548 288C548 283.333 548.417 280 549 280C549.571 280 550 277 550 273C550 269 550.429 266 551 266C551.643 266 552 256 552 238C552 220 552.357 210 553 210C553.627 210 554 203.667 554 193C554 182.333 554.373 176 555 176C555.571 176 556 173 556 169C556 165 556.429 162 557 162C557.556 162 558 159.333 558 156C558 152.667 558.444 150 559 150C559.55 150 560 147.75 560 145C560 142.25 560.45 140 561 140C561.593 140 562 136.333 562 131C562 125.667 562.407 122 563 122C563.55 122 564 120.2 564 118C564 115.8 564.45 114 565 114C565.55 114 566 113.293 566 112.429C566 110.501 568.377 108 570.208 108C570.951 108 572.207 107.1 573 106C574.393 104.067 575.589 104 608.792 104C637.229 104 643.389 104.246 644.571 105.429C645.768 106.625 646 114.267 646 152.429C646 182.143 645.652 198 645 198C644.356 198 644 208.333 644 227C644 245.667 643.644 256 643 256C642.444 256 642 258.667 642 262C642 265.333 641.556 268 641 268C640.45 268 640 269.8 640 272C640 274.2 639.55 276 639 276C638.45 276 638 278.25 638 281C638 283.75 637.55 286 637 286C636.417 286 636 289.333 636 294C636 298.667 635.583 302 635 302C634.429 302 634 305 634 309C634 313 633.571 316 633 316C632.45 316 632 317.8 632 320C632 322.2 631.55 324 631 324C630.45 324 630 326.25 630 329C630 331.75 629.55 334 629 334C628.45 334 628 336.25 628 339C628 341.75 627.55 344 627 344C626.367 344 626 351.333 626 364C626 376.667 625.633 384 625 384C624.359 384 624 393.19 624 409.571C624 436.306 624.264 438 628.429 438C629.293 438 630 438.45 630 439C630 439.554 632.639 440 635.917 440C639.672 440 642.046 440.457 642.417 441.25C642.883 442.25 643.117 442.25 643.583 441.25C644.302 439.71 660 439.471 660 441C660 441.6 664 442 670 442C676 442 680 441.6 680 441C680 440.45 682.25 440 685 440C687.75 440 690 439.55 690 439C690 438.444 692.667 438 696 438C699.333 438 702 437.556 702 437C702 436.45 703.35 436 705 436H708V430C708 426.667 708.444 424 709 424C709.571 424 710 421 710 417C710 413 710.429 410 711 410C711.55 410 712 408.2 712 406C712 403.8 712.45 402 713 402C713.556 402 714 399.333 714 396C714 392.667 714.444 390 715 390C715.571 390 716 387 716 383C716 379 716.429 376 717 376C717.606 376 718 371.667 718 365C718 358.333 718.394 354 719 354C719.571 354 720 351 720 347C720 343 720.429 340 721 340C721.55 340 722 337.75 722 335C722 332.25 722.45 330 723 330C723.55 330 724 328.2 724 326C724 323.8 724.45 322 725 322C725.55 322 726 319.75 726 317C726 314.25 726.45 312 727 312C727.6 312 728 308 728 302C728 296 728.4 292 729 292C729.625 292 730 286 730 276C730 266 730.375 260 731 260C731.55 260 732 258.2 732 256C732 253.8 732.45 252 733 252C733.556 252 734 249.333 734 246C734 242.667 734.444 240 735 240C735.571 240 736 237 736 233C736 229 736.429 226 737 226C737.606 226 738 221.667 738 215C738 208.333 738.394 204 739 204C739.635 204 740 196.333 740 183C740 169.667 740.365 162 741 162C741.556 162 742 159.333 742 156C742 152.667 742.444 150 743 150C743.55 150 744 148.65 744 147C744 145.35 744.45 144 745 144C745.55 144 746 142.2 746 140C746 137.8 746.45 136 747 136C747.571 136 748 133 748 129C748 125 748.429 122 749 122C749.639 122 750 113.333 750 98.0005C750 82.6675 750.361 74.0005 751 74.0005C751.55 74.0005 752 71.7505 752 69.0005C752 66.2505 752.45 64.0005 753 64.0005C753.55 64.0005 754 62.2005 754 60.0005C754 57.8005 754.45 56.0005 755 56.0005C755.55 56.0005 756 53.7505 756 51.0005C756 48.2505 756.45 46.0005 757 46.0005C757.55 46.0005 758 44.2005 758 42.0005C758 39.8005 758.45 38.0005 759 38.0005C759.606 38.0005 760 33.6675 760 27.0005C760 20.3335 759.606 16.0005 759 16.0005C759.5 9 761 5.5 759 2.5C757.333 0 745 1.5 740 1.00047C740 0.335466 623.775 0.0134604 393.25 0.0384604C95.025 0.0714604 46.325 0.275468 45.25 1.49647Z" fill="#FFFCFC"/>
</svg>
