<svg width="60" height="62" viewBox="0 0 60 62" fill="none" xmlns="http://www.w3.org/2000/svg">
<path d="M5.55041 30.9175V47.9744L4.58492 45.2535L14.4446 31.3125H14.5177L24.0994 45.2535L23.7484 48.2085V30.9175H29.3365V61.0962H29.2633L13.5522 38.8023L15.9367 38.2464L0.19635 61.0962H0.152466V30.9175H5.53578H5.55041Z" fill="#F2F5EA"/>
<path d="M59.6322 46.0873H49.085V40.5724H53.971V37.0615C53.5028 36.7982 52.947 36.608 52.274 36.491C51.6011 36.374 50.8697 36.3155 50.0798 36.3155C48.2512 36.3155 46.6274 36.6665 45.2085 37.3833C43.7895 38.1001 42.6777 39.1095 41.8731 40.4115C41.0832 41.728 40.6736 43.2933 40.6736 45.0926C40.6736 47.1699 41.0393 48.896 41.7707 50.2857C42.5022 51.6755 43.5847 52.7287 45.0036 53.4163C46.4226 54.1038 48.1488 54.4549 50.1822 54.4549C50.7966 54.4549 51.4987 54.3671 52.3033 54.1916C53.1079 54.016 53.8832 53.7966 54.6585 53.5479C55.4338 53.2846 56.0482 53.0213 56.5017 52.758L58.3156 58.0828C57.2624 58.6825 55.9751 59.1945 54.4683 59.6041C52.9616 60.0137 51.2939 60.2185 49.4654 60.2185C47.5344 60.2185 45.7058 59.8967 43.9358 59.2677C42.1803 58.6387 40.6297 57.6732 39.2839 56.3712C37.938 55.0693 36.8702 53.4455 36.0948 51.4853C35.3049 49.5251 34.9246 47.2284 34.9246 44.566C34.9246 41.9036 35.539 39.4606 36.7531 37.3541C37.9673 35.2476 39.7081 33.5945 41.9755 32.395C44.2283 31.1808 46.8907 30.5811 49.9481 30.5811C50.8258 30.5811 51.7474 30.6835 52.7129 30.8736C53.693 31.0638 54.6439 31.3271 55.5801 31.6489C56.5163 31.9708 57.3502 32.3072 58.067 32.6876C58.7838 33.0679 59.3104 33.4483 59.6468 33.814V46.0727L59.6322 46.0873Z" fill="#F2F5EA"/>
<path d="M0.284119 30.9175V0.73877H0.328003L16.0683 23.5886L13.6839 23.0327L29.395 0.73877H29.4681V30.9175H23.88V13.6265L24.2311 16.5815L14.6494 30.5225H14.5762L4.71657 16.5815L5.68206 13.8606V30.9175H0.298745H0.284119Z" fill="#1D1D1B"/>
<path d="M59.208 27.4212C58.8715 27.7869 58.3449 28.1672 57.6281 28.5476C56.9113 28.9279 56.0775 29.279 55.1413 29.5862C54.205 29.8934 53.2542 30.1567 52.2741 30.3615C51.2939 30.5517 50.3723 30.6541 49.5093 30.6541C46.4519 30.6541 43.8041 30.0543 41.5367 28.8401C39.2839 27.626 37.5431 25.9729 36.3143 23.8811C35.1001 21.7745 34.4857 19.3755 34.4857 16.6692C34.4857 13.9629 34.8807 11.7101 35.656 9.74986C36.4313 7.78963 37.4992 6.16586 38.845 4.86392C40.1909 3.56197 41.7415 2.59649 43.4969 1.96746C45.2523 1.33843 47.0955 1.0166 49.0265 1.0166C50.8551 1.0166 52.5227 1.2214 54.0295 1.631C55.5362 2.0406 56.8235 2.53797 57.8768 3.15237L56.0629 8.47717C55.5947 8.21386 54.9803 7.95054 54.2197 7.68723C53.459 7.42391 52.669 7.20449 51.8645 7.04357C51.0745 6.86803 50.3577 6.78026 49.7433 6.78026C47.7099 6.78026 45.9838 7.13134 44.5648 7.81889C43.1458 8.50643 42.0633 9.55969 41.3319 10.9494C40.6005 12.3391 40.2347 14.0799 40.2347 16.1572C40.2347 17.9711 40.6297 19.5364 41.4343 20.8383C42.2242 22.1549 43.336 23.1643 44.7696 23.8664C46.2032 24.5686 47.8123 24.9343 49.6409 24.9343C50.4309 24.9343 51.1623 24.8758 51.8352 24.7588C52.5081 24.6417 53.064 24.4516 53.5321 24.1883V20.6774H48.6462V15.1624H59.1934V27.4212H59.208Z" fill="#1D1D1B"/>
</svg>
