<svg width="1249" height="296" viewBox="0 0 1249 296" fill="none" xmlns="http://www.w3.org/2000/svg">
<path d="M253.559 135H120.559L60.5586 76.8H143.359L192.159 124.2L209.959 58.4H60.1586L75.7586 -2.38419e-06H289.759L286.359 12.6H136.759L127.759 45.8H277.559L253.559 135ZM352.82 62.4L333.42 135H269.22L305.42 -2.38419e-06H369.62L359.02 39.6L421.02 -2.38419e-06H554.02L517.82 135H453.62L486.82 10.8L453.02 32.4L425.62 135H361.42L380.82 62.4H352.82ZM649.049 -2.38419e-06H782.049L745.849 135H681.649L693.849 89.4H608.449L596.249 135H532.049L534.249 126.4L550.049 67.6L551.449 62.4L649.049 -2.38419e-06ZM697.249 76.8L715.049 10.8L611.849 76.8H697.249ZM838.979 89.4L826.779 135H762.579L798.779 -2.38419e-06H931.779L995.979 62.4L994.579 67.6L988.579 89.4H964.379L983.579 108.2L976.379 135.2H928.379L881.379 89.4H838.979ZM842.379 76.8H927.779L859.979 10.8L842.379 76.8ZM1092.45 135H1028.25L1061.05 12.6H986.252L989.652 -2.38419e-06H1203.45L1200.05 12.6H1125.25L1092.45 135ZM76.7719 249.4L64.5719 295.2H0.371875L36.5719 160H100.772L80.1719 236.8H165.572L186.172 160H250.372L214.172 295H149.972L162.172 249.4H76.7719ZM444.836 295H231.036L267.236 160H481.036L444.836 295ZM298.636 282.6H384.036L413.436 172.6H328.036L298.636 282.6ZM675.5 295H461.7L497.9 160H711.7L675.5 295ZM529.3 282.6H614.7L644.1 172.6H558.7L529.3 282.6ZM728.564 160H861.564L925.764 222.4L924.364 227.6L908.564 286.4L906.164 295H692.364L728.564 160ZM759.964 282.6H845.364L857.564 236.8L789.764 170.8L759.964 282.6ZM1017.37 160L981.173 295H916.973L953.173 160H1017.37ZM1131.03 295H998.028L1034.23 160H1248.03L1244.63 172.6H1095.03L1086.23 205.8H1182.23L1178.83 218.4H1082.83L1065.03 284.2L1145.63 232.8H1228.63L1131.03 295Z" fill="white" fill-opacity="0.3"/>
</svg>
