<svg width="1248" height="296" viewBox="0 0 1248 296" fill="none" xmlns="http://www.w3.org/2000/svg">
<path d="M207 135H74L14 76.8H96.8L145.6 124.2L163.4 58.4H13.6L29.2 -2.38419e-06H243.2L239.8 12.6H90.2L81.2 45.8H231L207 135ZM306.261 62.4L286.861 135H222.661L258.861 -2.38419e-06H323.061L312.461 39.6L374.461 -2.38419e-06H507.461L471.261 135H407.061L440.261 10.8L406.461 32.4L379.061 135H314.861L334.261 62.4H306.261ZM602.491 -2.38419e-06H735.491L699.291 135H635.091L647.291 89.4H561.891L549.691 135H485.491L487.691 126.4L503.491 67.6L504.891 62.4L602.491 -2.38419e-06ZM650.691 76.8L668.491 10.8L565.291 76.8H650.691ZM792.42 89.4L780.22 135H716.02L752.22 -2.38419e-06H885.22L949.42 62.4L948.02 67.6L942.02 89.4H917.82L937.02 108.2L929.82 135.2H881.82L834.82 89.4H792.42ZM795.82 76.8H881.22L813.42 10.8L795.82 76.8ZM1045.89 135H981.694L1014.49 12.6H939.694L943.094 -2.38419e-06H1156.89L1153.49 12.6H1078.69L1045.89 135ZM76.6 249.4L64.4 295.2H0.2L36.4 160H100.6L80 236.8H165.4L186 160H250.2L214 295H149.8L162 249.4H76.6ZM444.664 295H230.864L267.064 160H480.864L444.664 295ZM298.464 282.6H383.864L413.264 172.6H327.864L298.464 282.6ZM675.328 295H461.528L497.728 160H711.528L675.328 295ZM529.128 282.6H614.528L643.928 172.6H558.528L529.128 282.6ZM728.392 160H861.392L925.592 222.4L924.192 227.6L908.392 286.4L905.992 295H692.192L728.392 160ZM759.792 282.6H845.192L857.392 236.8L789.592 170.8L759.792 282.6ZM1017.2 160L981.002 295H916.802L953.002 160H1017.2ZM1130.86 295H997.856L1034.06 160H1247.86L1244.46 172.6H1094.86L1086.06 205.8H1182.06L1178.66 218.4H1082.66L1064.86 284.2L1145.46 232.8H1228.46L1130.86 295Z" fill="white"/>
</svg>
