<svg width="1364" height="295" viewBox="0 0 1364 295" fill="none" xmlns="http://www.w3.org/2000/svg">
<path d="M107.136 135H42.9359L75.7359 12.6H0.935938L4.33594 -2.38419e-06H218.136L214.736 12.6H139.936L107.136 135ZM285.413 -2.38419e-06H418.413L382.213 135H318.013L330.213 89.4H244.813L232.613 135H168.412L170.612 126.4L186.413 67.6L187.813 62.4L285.413 -2.38419e-06ZM333.613 76.8L351.413 10.8L248.213 76.8H333.613ZM475.342 89.4L463.142 135H398.942L435.142 -2.38419e-06H568.142L632.342 62.4L630.942 67.6L624.942 89.4H600.742L619.942 108.2L612.742 135.2H564.742L517.742 89.4H475.342ZM478.742 76.8H564.142L496.342 10.8L478.742 76.8ZM836.961 135H772.761L788.361 76.8L720.561 10.8L687.361 135H623.161L659.361 -2.38419e-06H792.361L856.561 62.4L855.161 67.6L839.361 126.4L836.961 135ZM1061.57 135H847.77L883.97 -2.38419e-06H1097.77L1061.57 135ZM915.37 122.6H1000.77L1030.17 12.6H944.77L915.37 122.6ZM1262.83 135L1273.43 95.4L1211.43 135H1078.43L1114.63 -2.38419e-06H1178.83L1145.43 124.2L1179.23 102.6L1206.83 -2.38419e-06H1271.03L1251.43 72.8H1279.43L1299.03 -2.38419e-06H1363.23L1327.03 135H1262.83ZM381.383 160L348.583 282.6H423.383L419.983 295H206.183L209.583 282.6H284.383L309.983 187L260.783 218.4H226.783L236.783 180.8L269.183 160H381.383ZM632.52 295H418.72L454.92 160H668.72L632.52 295ZM486.32 282.6H571.72L601.12 172.6H515.72L486.32 282.6ZM867.286 295H653.486L689.686 160H903.486L867.286 295ZM721.086 282.6H806.486L835.886 172.6H750.486L721.086 282.6ZM1102.05 295H888.252L924.452 160H1138.25L1102.05 295ZM955.852 282.6H1041.25L1070.65 172.6H985.252L955.852 282.6Z" fill="white" fill-opacity="0.3"/>
</svg>
